<svg xmlns="http://www.w3.org/2000/svg" viewBox="0 0 1200 1000">
  <!-- Estils i definicions -->
  <defs>
    <marker id="arrow" markerWidth="10" markerHeight="10" refX="9" refY="3" orient="auto" markerUnits="strokeWidth">
      <path d="M0,0 L0,6 L9,3 z" fill="#333" />
    </marker>
    
    <!-- Estil de les entitats principals -->
    <linearGradient id="entityGradient" x1="0%" y1="0%" x2="0%" y2="100%">
      <stop offset="0%" stop-color="#f8f9fa" />
      <stop offset="100%" stop-color="#e9ecef" />
    </linearGradient>
    
    <!-- Estil de les entitats intermediàries -->
    <linearGradient id="midEntityGradient" x1="0%" y1="0%" x2="0%" y2="100%">
      <stop offset="0%" stop-color="#e6f7ff" />
      <stop offset="100%" stop-color="#cce5ff" />
    </linearGradient>
  </defs>
  
  <!-- Fons -->
  <rect width="1200" height="1000" fill="#ffffff" />
  
  <!-- Títol -->
  <text x="600" y="30" font-family="Arial" font-size="24" font-weight="bold" text-anchor="middle">Diagrama Entitat/Relació - FuturPrive</text>
  
  <!-- Entitats -->
  
  <!-- Usuari -->
  <rect x="50" y="100" width="180" height="180" rx="5" ry="5" fill="url(#entityGradient)" stroke="#333" stroke-width="2" />
  <line x1="50" y1="130" x2="230" y2="130" stroke="#333" stroke-width="2" />
  <text x="140" y="120" font-family="Arial" font-size="16" font-weight="bold" text-anchor="middle">Usuari</text>
  <text x="60" y="150" font-family="Arial" font-size="12">PK: id</text>
  <text x="60" y="170" font-family="Arial" font-size="12">username</text>
  <text x="60" y="190" font-family="Arial" font-size="12">email</text>
  <text x="60" y="210" font-family="Arial" font-size="12">password</text>
  <text x="60" y="230" font-family="Arial" font-size="12">first_name</text>
  <text x="60" y="250" font-family="Arial" font-size="12">last_name</text>
  <text x="60" y="270" font-family="Arial" font-size="12">level</text>
  
  <!-- Pla -->
  <rect x="50" y="350" width="180" height="130" rx="5" ry="5" fill="url(#entityGradient)" stroke="#333" stroke-width="2" />
  <line x1="50" y1="380" x2="230" y2="380" stroke="#333" stroke-width="2" />
  <text x="140" y="370" font-family="Arial" font-size="16" font-weight="bold" text-anchor="middle">Pla</text>
  <text x="60" y="400" font-family="Arial" font-size="12">PK: id</text>
  <text x="60" y="420" font-family="Arial" font-size="12">nom</text>
  <text x="60" y="440" font-family="Arial" font-size="12">preu</text>
  <text x="60" y="460" font-family="Arial" font-size="12">descripció</text>
  
  <!-- Subscripció -->
  <rect x="320" y="200" width="180" height="150" rx="5" ry="5" fill="url(#entityGradient)" stroke="#333" stroke-width="2" />
  <line x1="320" y1="230" x2="500" y2="230" stroke="#333" stroke-width="2" />
  <text x="410" y="220" font-family="Arial" font-size="16" font-weight="bold" text-anchor="middle">Subscripció</text>
  <text x="330" y="250" font-family="Arial" font-size="12">PK: id</text>
  <text x="330" y="270" font-family="Arial" font-size="12">FK: usuari_id</text>
  <text x="330" y="290" font-family="Arial" font-size="12">FK: pla_id</text>
  <text x="330" y="310" font-family="Arial" font-size="12">data_inici</text>
  <text x="330" y="330" font-family="Arial" font-size="12">data_fi</text>
  <text x="330" y="350" font-family="Arial" font-size="12">estat</text>
  
  <!-- Curs -->
  <rect x="600" y="100" width="180" height="150" rx="5" ry="5" fill="url(#entityGradient)" stroke="#333" stroke-width="2" />
  <line x1="600" y1="130" x2="780" y2="130" stroke="#333" stroke-width="2" />
  <text x="690" y="120" font-family="Arial" font-size="16" font-weight="bold" text-anchor="middle">Curs</text>
  <text x="610" y="150" font-family="Arial" font-size="12">PK: id</text>
  <text x="610" y="170" font-family="Arial" font-size="12">títol</text>
  <text x="610" y="190" font-family="Arial" font-size="12">descripció</text>
  <text x="610" y="210" font-family="Arial" font-size="12">nivell</text>
  <text x="610" y="230" font-family="Arial" font-size="12">imatge</text>
  <text x="610" y="250" font-family="Arial" font-size="12">FK: pla_mínim_id</text>
  
  <!-- Mòdul -->
  <rect x="870" y="100" width="180" height="130" rx="5" ry="5" fill="url(#entityGradient)" stroke="#333" stroke-width="2" />
  <line x1="870" y1="130" x2="1050" y2="130" stroke="#333" stroke-width="2" />
  <text x="960" y="120" font-family="Arial" font-size="16" font-weight="bold" text-anchor="middle">Mòdul</text>
  <text x="880" y="150" font-family="Arial" font-size="12">PK: id</text>
  <text x="880" y="170" font-family="Arial" font-size="12">FK: curs_id</text>
  <text x="880" y="190" font-family="Arial" font-size="12">títol</text>
  <text x="880" y="210" font-family="Arial" font-size="12">ordre</text>
  
  <!-- Lliçó -->
  <rect x="870" y="300" width="180" height="150" rx="5" ry="5" fill="url(#entityGradient)" stroke="#333" stroke-width="2" />
  <line x1="870" y1="330" x2="1050" y2="330" stroke="#333" stroke-width="2" />
  <text x="960" y="320" font-family="Arial" font-size="16" font-weight="bold" text-anchor="middle">Lliçó</text>
  <text x="880" y="350" font-family="Arial" font-size="12">PK: id</text>
  <text x="880" y="370" font-family="Arial" font-size="12">FK: mòdul_id</text>
  <text x="880" y="390" font-family="Arial" font-size="12">títol</text>
  <text x="880" y="410" font-family="Arial" font-size="12">contingut</text>
  <text x="880" y="430" font-family="Arial" font-size="12">video_url</text>
  <text x="880" y="450" font-family="Arial" font-size="12">durada</text>
  
  <!-- ProgrésCurs -->
  <rect x="600" y="300" width="180" height="130" rx="5" ry="5" fill="url(#midEntityGradient)" stroke="#333" stroke-width="2" />
  <line x1="600" y1="330" x2="780" y2="330" stroke="#333" stroke-width="2" />
  <text x="690" y="320" font-family="Arial" font-size="16" font-weight="bold" text-anchor="middle">ProgrésCurs</text>
  <text x="610" y="350" font-family="Arial" font-size="12">PK: id</text>
  <text x="610" y="370" font-family="Arial" font-size="12">FK: usuari_id</text>
  <text x="610" y="390" font-family="Arial" font-size="12">FK: curs_id</text>
  <text x="610" y="410" font-family="Arial" font-size="12">percentatge_completat</text>
  <text x="610" y="430" font-family="Arial" font-size="12">última_activitat</text>
  
  <!-- ProgrésLliçó -->
  <rect x="600" y="500" width="180" height="130" rx="5" ry="5" fill="url(#midEntityGradient)" stroke="#333" stroke-width="2" />
  <line x1="600" y1="530" x2="780" y2="530" stroke="#333" stroke-width="2" />
  <text x="690" y="520" font-family="Arial" font-size="16" font-weight="bold" text-anchor="middle">ProgrésLliçó</text>
  <text x="610" y="550" font-family="Arial" font-size="12">PK: id</text>
  <text x="610" y="570" font-family="Arial" font-size="12">FK: usuari_id</text>
  <text x="610" y="590" font-family="Arial" font-size="12">FK: lliçó_id</text>
  <text x="610" y="610" font-family="Arial" font-size="12">completada</text>
  <text x="610" y="630" font-family="Arial" font-size="12">data_completada</text>
  
  <!-- Categoria -->
  <rect x="50" y="550" width="180" height="100" rx="5" ry="5" fill="url(#entityGradient)" stroke="#333" stroke-width="2" />
  <line x1="50" y1="580" x2="230" y2="580" stroke="#333" stroke-width="2" />
  <text x="140" y="570" font-family="Arial" font-size="16" font-weight="bold" text-anchor="middle">Categoria</text>
  <text x="60" y="600" font-family="Arial" font-size="12">PK: id</text>
  <text x="60" y="620" font-family="Arial" font-size="12">nom</text>
  <text x="60" y="640" font-family="Arial" font-size="12">icona</text>
  
  <!-- Post -->
  <rect x="320" y="500" width="180" height="170" rx="5" ry="5" fill="url(#entityGradient)" stroke="#333" stroke-width="2" />
  <line x1="320" y1="530" x2="500" y2="530" stroke="#333" stroke-width="2" />
  <text x="410" y="520" font-family="Arial" font-size="16" font-weight="bold" text-anchor="middle">Post</text>
  <text x="330" y="550" font-family="Arial" font-size="12">PK: id</text>
  <text x="330" y="570" font-family="Arial" font-size="12">FK: usuari_id</text>
  <text x="330" y="590" font-family="Arial" font-size="12">FK: categoria_id</text>
  <text x="330" y="610" font-family="Arial" font-size="12">contingut</text>
  <text x="330" y="630" font-family="Arial" font-size="12">data_creació</text>
  <text x="330" y="650" font-family="Arial" font-size="12">és_fixat</text>
  <text x="330" y="670" font-family="Arial" font-size="12">adjunt</text>
  
  <!-- Comentari -->
  <rect x="320" y="750" width="180" height="130" rx="5" ry="5" fill="url(#entityGradient)" stroke="#333" stroke-width="2" />
  <line x1="320" y1="780" x2="500" y2="780" stroke="#333" stroke-width="2" />
  <text x="410" y="770" font-family="Arial" font-size="16" font-weight="bold" text-anchor="middle">Comentari</text>
  <text x="330" y="800" font-family="Arial" font-size="12">PK: id</text>
  <text x="330" y="820" font-family="Arial" font-size="12">FK: usuari_id</text>
  <text x="330" y="840" font-family="Arial" font-size="12">FK: post_id</text>
  <text x="330" y="860" font-family="Arial" font-size="12">contingut</text>
  <text x="330" y="880" font-family="Arial" font-size="12">data_creació</text>
  
  <!-- Reacció -->
  <rect x="50" y="720" width="180" height="130" rx="5" ry="5" fill="url(#midEntityGradient)" stroke="#333" stroke-width="2" />
  <line x1="50" y1="750" x2="230" y2="750" stroke="#333" stroke-width="2" />
  <text x="140" y="740" font-family="Arial" font-size="16" font-weight="bold" text-anchor="middle">Reacció</text>
  <text x="60" y="770" font-family="Arial" font-size="12">PK: id</text>
  <text x="60" y="790" font-family="Arial" font-size="12">FK: usuari_id</text>
  <text x="60" y="810" font-family="Arial" font-size="12">FK: post_id</text>
  <text x="60" y="830" font-family="Arial" font-size="12">tipus_reacció</text>
  <text x="60" y="850" font-family="Arial" font-size="12">data_creació</text>
  
  <!-- Logro -->
  <rect x="870" y="500" width="180" height="130" rx="5" ry="5" fill="url(#entityGradient)" stroke="#333" stroke-width="2" />
  <line x1="870" y1="530" x2="1050" y2="530" stroke="#333" stroke-width="2" />
  <text x="960" y="520" font-family="Arial" font-size="16" font-weight="bold" text-anchor="middle">Logro</text>
  <text x="880" y="550" font-family="Arial" font-size="12">PK: id</text>
  <text x="880" y="570" font-family="Arial" font-size="12">nom</text>
  <text x="880" y="590" font-family="Arial" font-size="12">descripció</text>
  <text x="880" y="610" font-family="Arial" font-size="12">punts</text>
  <text x="880" y="630" font-family="Arial" font-size="12">icona</text>
  
  <!-- UsuariLogro -->
  <rect x="600" y="680" width="180" height="120" rx="5" ry="5" fill="url(#midEntityGradient)" stroke="#333" stroke-width="2" />
  <line x1="600" y1="710" x2="780" y2="710" stroke="#333" stroke-width="2" />
  <text x="690" y="700" font-family="Arial" font-size="16" font-weight="bold" text-anchor="middle">UsuariLogro</text>
  <text x="610" y="730" font-family="Arial" font-size="12">PK: id</text>
  <text x="610" y="750" font-family="Arial" font-size="12">FK: usuari_id</text>
  <text x="610" y="770" font-family="Arial" font-size="12">FK: logro_id</text>
  <text x="610" y="790" font-family="Arial" font-size="12">data_obtingut</text>
  
  <!-- Relacions -->
  
  <!-- Usuari - Subscripció -->
  <line x1="230" y1="190" x2="320" y2="250" stroke="#333" stroke-width="1.5" marker-end="url(#arrow)" />
  <text x="250" y="210" font-family="Arial" font-size="12" text-anchor="middle">1</text>
  <text x="300" y="250" font-family="Arial" font-size="12" text-anchor="middle">1</text>
  
  <!-- Pla - Subscripció -->
  <line x1="230" y1="380" x2="320" y2="290" stroke="#333" stroke-width="1.5" marker-end="url(#arrow)" />
  <text x="240" y="360" font-family="Arial" font-size="12" text-anchor="middle">1</text>
  <text x="300" y="300" font-family="Arial" font-size="12" text-anchor="middle">N</text>
  
  <!-- Usuari - ProgrésCurs -->
  <line x1="140" y1="280" x2="140" y2="500" stroke="#333" stroke-width="1.5" stroke-dasharray="5,5" />
  <line x1="140" y1="500" x2="600" y2="390" stroke="#333" stroke-width="1.5" marker-end="url(#arrow)" />
  <text x="140" y="300" font-family="Arial" font-size="12" text-anchor="middle">1</text>
  <text x="580" y="380" font-family="Arial" font-size="12" text-anchor="middle">N</text>
  
  <!-- Curs - ProgrésCurs -->
  <line x1="690" y1="250" x2="690" y2="300" stroke="#333" stroke-width="1.5" marker-end="url(#arrow)" />
  <text x="670" y="270" font-family="Arial" font-size="12" text-anchor="middle">1</text>
  <text x="710" y="290" font-family="Arial" font-size="12" text-anchor="middle">N</text>
  
  <!-- Curs - Mòdul -->
  <line x1="780" y1="150" x2="870" y2="150" stroke="#333" stroke-width="1.5" marker-end="url(#arrow)" />
  <text x="800" y="140" font-family="Arial" font-size="12" text-anchor="middle">1</text>
  <text x="850" y="140" font-family="Arial" font-size="12" text-anchor="middle">N</text>
  
  <!-- Mòdul - Lliçó -->
  <line x1="960" y1="230" x2="960" y2="300" stroke="#333" stroke-width="1.5" marker-end="url(#arrow)" />
  <text x="940" y="250" font-family="Arial" font-size="12" text-anchor="middle">1</text>
  <text x="980" y="290" font-family="Arial" font-size="12" text-anchor="middle">N</text>
  
  <!-- Usuari - ProgrésLliçó -->
  <line x1="140" y1="500" x2="600" y2="580" stroke="#333" stroke-width="1.5" marker-end="url(#arrow)" />
  <text x="180" y="520" font-family="Arial" font-size="12" text-anchor="middle">1</text>
  <text x="580" y="570" font-family="Arial" font-size="12" text-anchor="middle">N</text>
  
  <!-- Lliçó - ProgrésLliçó -->
  <line x1="870" y1="400" x2="780" y2="550" stroke="#333" stroke-width="1.5" marker-end="url(#arrow)" />
  <text x="860" y="420" font-family="Arial" font-size="12" text-anchor="middle">1</text>
  <text x="800" y="530" font-family="Arial" font-size="12" text-anchor="middle">N</text>
  
  <!-- Usuari - Post -->
  <line x1="180" y1="280" x2="320" y2="570" stroke="#333" stroke-width="1.5" marker-end="url(#arrow)" />
  <text x="200" y="310" font-family="Arial" font-size="12" text-anchor="middle">1</text>
  <text x="300" y="550" font-family="Arial" font-size="12" text-anchor="middle">N</text>
  
  <!-- Categoria - Post -->
  <line x1="230" y1="600" x2="320" y2="600" stroke="#333" stroke-width="1.5" marker-end="url(#arrow)" />
  <text x="240" y="590" font-family="Arial" font-size="12" text-anchor="middle">1</text>
  <text x="300" y="590" font-family="Arial" font-size="12" text-anchor="middle">N</text>
  
  <!-- Usuari - Comentari -->
  <line x1="140" y1="280" x2="140" y2="830" stroke="#333" stroke-width="1.5" stroke-dasharray="5,5" />
  <line x1="140" y1="830" x2="320" y2="830" stroke="#333" stroke-width="1.5" marker-end="url(#arrow)" />
  <text x="150" y="810" font-family="Arial" font-size="12" text-anchor="middle">1</text>
  <text x="300" y="820" font-family="Arial" font-size="12" text-anchor="middle">N</text>
  
  <!-- Post - Comentari -->
  <line x1="410" y1="670" x2="410" y2="750" stroke="#333" stroke-width="1.5" marker-end="url(#arrow)" />
  <text x="390" y="690" font-family="Arial" font-size="12" text-anchor="middle">1</text>
  <text x="430" y="730" font-family="Arial" font-size="12" text-anchor="middle">N</text>
  
  <!-- Usuari - Reacció -->
  <line x1="120" y1="280" x2="120" y2="720" stroke="#333" stroke-width="1.5" marker-end="url(#arrow)" />
  <text x="100" y="300" font-family="Arial" font-size="12" text-anchor="middle">1</text>
  <text x="140" y="700" font-family="Arial" font-size="12" text-anchor="middle">N</text>
  
  <!-- Post - Reacció -->
  <line x1="320" y1="600" x2="230" y2="780" stroke="#333" stroke-width="1.5" marker-end="url(#arrow)" />
  <text x="310" y="610" font-family="Arial" font-size="12" text-anchor="middle">1</text>
  <text x="250" y="760" font-family="Arial" font-size="12" text-anchor="middle">N</text>
  
  <!-- Usuari - UsuariLogro -->
  <line x1="140" y1="830" x2="600" y2="770" stroke="#333" stroke-width="1.5" stroke-dasharray="5,5" />
  <line x1="600" y1="770" x2="600" y2="770" stroke="#333" stroke-width="1.5" marker-end="url(#arrow)" />
  <text x="200" y="810" font-family="Arial" font-size="12" text-anchor="middle">1</text>
  <text x="580" y="760" font-family="Arial" font-size="12" text-anchor="middle">N</text>
  
  <!-- Logro - UsuariLogro -->
  <line x1="870" y1="600" x2="780" y2="720" stroke="#333" stroke-width="1.5" marker-end="url(#arrow)" />
  <text x="860" y="620" font-family="Arial" font-size="12" text-anchor="middle">1</text>
  <text x="800" y="700" font-family="Arial" font-size="12" text-anchor="middle">N</text>
  
  <!-- Llegenda -->
  <rect x="980" y="750" width="18" height="18" fill="url(#entityGradient)" stroke="#333" stroke-width="1" />
  <text x="1005" y="765" font-family="Arial" font-size="14">Entitat principal</text>
  
  <rect x="980" y="780" width="18" height="18" fill="url(#midEntityGradient)" stroke="#333" stroke-width="1" />
  <text x="1005" y="795" font-family="Arial" font-size="14">Entitat intermèdia/relació</text>
  
  <line x1="980" y1="815" x2="1000" y2="815" stroke="#333" stroke-width="1.5" />
  <text x="1005" y="820" font-family="Arial" font-size="14">Relació 1:N</text>
  
  <line x1="980" y1="835" x2="1000" y2="835" stroke="#333" stroke-width="1.5" stroke-dasharray="5,5" />
  <text x="1005" y="840" font-family="Arial" font-size="14">Relació indirecta</text>
</svg>